# xmcd
#
# Track frame offsets:
#	150
#	11035
#	20795
#	30475
#	41205
#	53410
#	64420
#	77188
#	87402
#	98789
#	111739
#	123217
#	135047
#	145227
#	158173
#	171370
#	184409
#	197090
#	206920
#	218147
#
# Disc length: 3046 seconds
#
# Revision: 1
# Processed by: cddbd v1.5.2PL0 Copyright (c) Steve Scherf et al.
# Submitted via: audiograbber 1.83.01
#
DISCID=260be414
DTITLE=Little Richard - Tutti Frutti
DYEAR=1900
DGENRE=Rock 'n' Roll
TTITLE0=Tutti Frutti
TTITLE1=Long Tall Sally
TTITLE2=Ready Teddy
TTITLE3=Rip It Up
TTITLE4=Slippin' And Slidin'
TTITLE5=She's Got It
TTITLE6=Little Richard Boogie
TTITLE7=Get Rich Quick
TTITLE8=Please Have Mercy On Me
TTITLE9=Thinkin' Bout My Mother
TTITLE10=Why Did You Leave Me?
TTITLE11=I'm Just A Lonely Guy
TTITLE12=Heeby-Jeebies
TTITLE13=Every Hour
TTITLE14=Directly From My Heart
TTITLE15=I Brought It All On Myself
TTITLE16=Ain't That Good News
TTITLE17=Ain't Nothing Happening
TTITLE18=I Love My Baby
TTITLE19=Taxi Blues
EXTD=
EXTT0=
EXTT1=
EXTT2=
EXTT3=
EXTT4=
EXTT5=
EXTT6=
EXTT7=
EXTT8=
EXTT9=
EXTT10=
EXTT11=
EXTT12=
EXTT13=
EXTT14=
EXTT15=
EXTT16=
EXTT17=
EXTT18=
EXTT19=
PLAYORDER=
